<mxfile host="app.diagrams.net" agent="Mozilla/5.0 (Windows NT 10.0; Win64; x64) AppleWebKit/537.36 (KHTML, like Gecko) Chrome/133.0.0.0 Safari/537.36" version="26.1.0">
  <diagram id="BqXm88q0onVovqyQrsQX" name="Page-1">
    <mxGraphModel dx="1707" dy="434" grid="1" gridSize="10" guides="1" tooltips="1" connect="1" arrows="1" fold="1" page="1" pageScale="1" pageWidth="827" pageHeight="1169" math="0" shadow="0">
      <root>
        <mxCell id="0" />
        <mxCell id="1" parent="0" />
        <mxCell id="WQZCRRyg-xGZXXUz7URa-1" value="&lt;b&gt;&lt;i&gt;&lt;font style=&quot;font-size: 10px;&quot;&gt;Student&lt;/font&gt;&lt;/i&gt;&lt;/b&gt;" style="text;strokeColor=none;align=center;fillColor=none;html=1;verticalAlign=middle;whiteSpace=wrap;rounded=0;" vertex="1" parent="1">
          <mxGeometry x="107" y="100" width="60" height="30" as="geometry" />
        </mxCell>
        <mxCell id="WQZCRRyg-xGZXXUz7URa-2" value="" style="shape=table;startSize=0;container=1;collapsible=0;childLayout=tableLayout;" vertex="1" parent="1">
          <mxGeometry x="120" y="126" width="300" height="40" as="geometry" />
        </mxCell>
        <mxCell id="WQZCRRyg-xGZXXUz7URa-3" value="" style="shape=tableRow;horizontal=0;startSize=0;swimlaneHead=0;swimlaneBody=0;strokeColor=inherit;top=0;left=0;bottom=0;right=0;collapsible=0;dropTarget=0;fillColor=none;points=[[0,0.5],[1,0.5]];portConstraint=eastwest;" vertex="1" parent="WQZCRRyg-xGZXXUz7URa-2">
          <mxGeometry width="300" height="40" as="geometry" />
        </mxCell>
        <mxCell id="WQZCRRyg-xGZXXUz7URa-4" value="&lt;b&gt;&lt;i&gt;&lt;font style=&quot;font-size: 10px;&quot;&gt;ID&lt;/font&gt;&lt;/i&gt;&lt;/b&gt;" style="shape=partialRectangle;html=1;whiteSpace=wrap;connectable=0;strokeColor=inherit;overflow=hidden;fillColor=none;top=0;left=0;bottom=0;right=0;pointerEvents=1;" vertex="1" parent="WQZCRRyg-xGZXXUz7URa-3">
          <mxGeometry width="60" height="40" as="geometry">
            <mxRectangle width="60" height="40" as="alternateBounds" />
          </mxGeometry>
        </mxCell>
        <mxCell id="WQZCRRyg-xGZXXUz7URa-5" value="&lt;span style=&quot;font-size: 10px;&quot;&gt;&lt;b&gt;&lt;i&gt;Age&lt;/i&gt;&lt;/b&gt;&lt;/span&gt;" style="shape=partialRectangle;html=1;whiteSpace=wrap;connectable=0;strokeColor=inherit;overflow=hidden;fillColor=none;top=0;left=0;bottom=0;right=0;pointerEvents=1;" vertex="1" parent="WQZCRRyg-xGZXXUz7URa-3">
          <mxGeometry x="60" width="60" height="40" as="geometry">
            <mxRectangle width="60" height="40" as="alternateBounds" />
          </mxGeometry>
        </mxCell>
        <mxCell id="WQZCRRyg-xGZXXUz7URa-6" value="&lt;span style=&quot;font-size: 10px;&quot;&gt;&lt;b&gt;&lt;i&gt;Fname&lt;/i&gt;&lt;/b&gt;&lt;/span&gt;" style="shape=partialRectangle;html=1;whiteSpace=wrap;connectable=0;strokeColor=inherit;overflow=hidden;fillColor=none;top=0;left=0;bottom=0;right=0;pointerEvents=1;" vertex="1" parent="WQZCRRyg-xGZXXUz7URa-3">
          <mxGeometry x="120" width="60" height="40" as="geometry">
            <mxRectangle width="60" height="40" as="alternateBounds" />
          </mxGeometry>
        </mxCell>
        <mxCell id="WQZCRRyg-xGZXXUz7URa-7" value="&lt;span style=&quot;font-size: 10px;&quot;&gt;&lt;b&gt;&lt;i&gt;LName&lt;/i&gt;&lt;/b&gt;&lt;/span&gt;" style="shape=partialRectangle;html=1;whiteSpace=wrap;connectable=0;strokeColor=inherit;overflow=hidden;fillColor=none;top=0;left=0;bottom=0;right=0;pointerEvents=1;" vertex="1" parent="WQZCRRyg-xGZXXUz7URa-3">
          <mxGeometry x="180" width="60" height="40" as="geometry">
            <mxRectangle width="60" height="40" as="alternateBounds" />
          </mxGeometry>
        </mxCell>
        <mxCell id="WQZCRRyg-xGZXXUz7URa-8" value="&lt;span style=&quot;font-size: 10px;&quot;&gt;&lt;b&gt;&lt;i&gt;Address&lt;/i&gt;&lt;/b&gt;&lt;/span&gt;" style="shape=partialRectangle;html=1;whiteSpace=wrap;connectable=0;strokeColor=inherit;overflow=hidden;fillColor=none;top=0;left=0;bottom=0;right=0;pointerEvents=1;" vertex="1" parent="WQZCRRyg-xGZXXUz7URa-3">
          <mxGeometry x="240" width="60" height="40" as="geometry">
            <mxRectangle width="60" height="40" as="alternateBounds" />
          </mxGeometry>
        </mxCell>
        <mxCell id="WQZCRRyg-xGZXXUz7URa-9" value="" style="endArrow=none;html=1;rounded=0;" edge="1" parent="1">
          <mxGeometry width="50" height="50" relative="1" as="geometry">
            <mxPoint x="137" y="156" as="sourcePoint" />
            <mxPoint x="167" y="156" as="targetPoint" />
          </mxGeometry>
        </mxCell>
        <mxCell id="WQZCRRyg-xGZXXUz7URa-11" value="&lt;span style=&quot;font-size: 10px;&quot;&gt;&lt;b&gt;&lt;i&gt;Course&lt;/i&gt;&lt;/b&gt;&lt;/span&gt;" style="text;strokeColor=none;align=center;fillColor=none;html=1;verticalAlign=middle;whiteSpace=wrap;rounded=0;" vertex="1" parent="1">
          <mxGeometry x="107" y="259" width="60" height="30" as="geometry" />
        </mxCell>
        <mxCell id="WQZCRRyg-xGZXXUz7URa-12" value="" style="shape=table;startSize=0;container=1;collapsible=0;childLayout=tableLayout;" vertex="1" parent="1">
          <mxGeometry x="120" y="285" width="240" height="40" as="geometry" />
        </mxCell>
        <mxCell id="WQZCRRyg-xGZXXUz7URa-13" value="" style="shape=tableRow;horizontal=0;startSize=0;swimlaneHead=0;swimlaneBody=0;strokeColor=inherit;top=0;left=0;bottom=0;right=0;collapsible=0;dropTarget=0;fillColor=none;points=[[0,0.5],[1,0.5]];portConstraint=eastwest;" vertex="1" parent="WQZCRRyg-xGZXXUz7URa-12">
          <mxGeometry width="240" height="40" as="geometry" />
        </mxCell>
        <mxCell id="WQZCRRyg-xGZXXUz7URa-14" value="&lt;b&gt;&lt;i&gt;&lt;font style=&quot;font-size: 10px;&quot;&gt;ID&lt;/font&gt;&lt;/i&gt;&lt;/b&gt;" style="shape=partialRectangle;html=1;whiteSpace=wrap;connectable=0;strokeColor=inherit;overflow=hidden;fillColor=none;top=0;left=0;bottom=0;right=0;pointerEvents=1;" vertex="1" parent="WQZCRRyg-xGZXXUz7URa-13">
          <mxGeometry width="60" height="40" as="geometry">
            <mxRectangle width="60" height="40" as="alternateBounds" />
          </mxGeometry>
        </mxCell>
        <mxCell id="WQZCRRyg-xGZXXUz7URa-15" value="&lt;span style=&quot;font-size: 10px;&quot;&gt;&lt;b&gt;&lt;i&gt;Name&lt;/i&gt;&lt;/b&gt;&lt;/span&gt;" style="shape=partialRectangle;html=1;whiteSpace=wrap;connectable=0;strokeColor=inherit;overflow=hidden;fillColor=none;top=0;left=0;bottom=0;right=0;pointerEvents=1;" vertex="1" parent="WQZCRRyg-xGZXXUz7URa-13">
          <mxGeometry x="60" width="60" height="40" as="geometry">
            <mxRectangle width="60" height="40" as="alternateBounds" />
          </mxGeometry>
        </mxCell>
        <mxCell id="WQZCRRyg-xGZXXUz7URa-16" value="&lt;span style=&quot;font-size: 10px;&quot;&gt;&lt;b&gt;&lt;i&gt;Duration&lt;/i&gt;&lt;/b&gt;&lt;/span&gt;" style="shape=partialRectangle;html=1;whiteSpace=wrap;connectable=0;strokeColor=inherit;overflow=hidden;fillColor=none;top=0;left=0;bottom=0;right=0;pointerEvents=1;" vertex="1" parent="WQZCRRyg-xGZXXUz7URa-13">
          <mxGeometry x="120" width="60" height="40" as="geometry">
            <mxRectangle width="60" height="40" as="alternateBounds" />
          </mxGeometry>
        </mxCell>
        <mxCell id="WQZCRRyg-xGZXXUz7URa-17" value="&lt;span style=&quot;font-size: 10px;&quot;&gt;&lt;b&gt;&lt;i&gt;Description&lt;/i&gt;&lt;/b&gt;&lt;/span&gt;" style="shape=partialRectangle;html=1;whiteSpace=wrap;connectable=0;strokeColor=inherit;overflow=hidden;fillColor=none;top=0;left=0;bottom=0;right=0;pointerEvents=1;" vertex="1" parent="WQZCRRyg-xGZXXUz7URa-13">
          <mxGeometry x="180" width="60" height="40" as="geometry">
            <mxRectangle width="60" height="40" as="alternateBounds" />
          </mxGeometry>
        </mxCell>
        <mxCell id="WQZCRRyg-xGZXXUz7URa-19" value="" style="endArrow=none;html=1;rounded=0;" edge="1" parent="1">
          <mxGeometry width="50" height="50" relative="1" as="geometry">
            <mxPoint x="136" y="314" as="sourcePoint" />
            <mxPoint x="166" y="314" as="targetPoint" />
          </mxGeometry>
        </mxCell>
        <mxCell id="WQZCRRyg-xGZXXUz7URa-20" value="&lt;span style=&quot;font-size: 10px;&quot;&gt;&lt;b&gt;&lt;i&gt;Topic&lt;/i&gt;&lt;/b&gt;&lt;/span&gt;" style="text;strokeColor=none;align=center;fillColor=none;html=1;verticalAlign=middle;whiteSpace=wrap;rounded=0;" vertex="1" parent="1">
          <mxGeometry x="103" y="335" width="60" height="30" as="geometry" />
        </mxCell>
        <mxCell id="WQZCRRyg-xGZXXUz7URa-21" value="" style="shape=table;startSize=0;container=1;collapsible=0;childLayout=tableLayout;" vertex="1" parent="1">
          <mxGeometry x="120" y="359" width="120" height="40" as="geometry" />
        </mxCell>
        <mxCell id="WQZCRRyg-xGZXXUz7URa-22" value="" style="shape=tableRow;horizontal=0;startSize=0;swimlaneHead=0;swimlaneBody=0;strokeColor=inherit;top=0;left=0;bottom=0;right=0;collapsible=0;dropTarget=0;fillColor=none;points=[[0,0.5],[1,0.5]];portConstraint=eastwest;" vertex="1" parent="WQZCRRyg-xGZXXUz7URa-21">
          <mxGeometry width="120" height="40" as="geometry" />
        </mxCell>
        <mxCell id="WQZCRRyg-xGZXXUz7URa-23" value="&lt;b&gt;&lt;i&gt;&lt;font style=&quot;font-size: 10px;&quot;&gt;ID&lt;/font&gt;&lt;/i&gt;&lt;/b&gt;" style="shape=partialRectangle;html=1;whiteSpace=wrap;connectable=0;strokeColor=inherit;overflow=hidden;fillColor=none;top=0;left=0;bottom=0;right=0;pointerEvents=1;" vertex="1" parent="WQZCRRyg-xGZXXUz7URa-22">
          <mxGeometry width="60" height="40" as="geometry">
            <mxRectangle width="60" height="40" as="alternateBounds" />
          </mxGeometry>
        </mxCell>
        <mxCell id="WQZCRRyg-xGZXXUz7URa-24" value="&lt;b&gt;&lt;i&gt;&lt;font style=&quot;font-size: 10px;&quot;&gt;Name&lt;/font&gt;&lt;/i&gt;&lt;/b&gt;" style="shape=partialRectangle;html=1;whiteSpace=wrap;connectable=0;strokeColor=inherit;overflow=hidden;fillColor=none;top=0;left=0;bottom=0;right=0;pointerEvents=1;" vertex="1" parent="WQZCRRyg-xGZXXUz7URa-22">
          <mxGeometry x="60" width="60" height="40" as="geometry">
            <mxRectangle width="60" height="40" as="alternateBounds" />
          </mxGeometry>
        </mxCell>
        <mxCell id="WQZCRRyg-xGZXXUz7URa-25" value="" style="endArrow=none;html=1;rounded=0;" edge="1" parent="1">
          <mxGeometry width="50" height="50" relative="1" as="geometry">
            <mxPoint x="140" y="388" as="sourcePoint" />
            <mxPoint x="161" y="388" as="targetPoint" />
          </mxGeometry>
        </mxCell>
        <mxCell id="WQZCRRyg-xGZXXUz7URa-26" value="&lt;span style=&quot;font-size: 10px;&quot;&gt;&lt;b&gt;&lt;i&gt;Department&lt;/i&gt;&lt;/b&gt;&lt;/span&gt;" style="text;strokeColor=none;align=center;fillColor=none;html=1;verticalAlign=middle;whiteSpace=wrap;rounded=0;" vertex="1" parent="1">
          <mxGeometry x="117" y="413" width="60" height="30" as="geometry" />
        </mxCell>
        <mxCell id="WQZCRRyg-xGZXXUz7URa-27" value="" style="shape=table;startSize=0;container=1;collapsible=0;childLayout=tableLayout;" vertex="1" parent="1">
          <mxGeometry x="120" y="438" width="120" height="40" as="geometry" />
        </mxCell>
        <mxCell id="WQZCRRyg-xGZXXUz7URa-28" value="" style="shape=tableRow;horizontal=0;startSize=0;swimlaneHead=0;swimlaneBody=0;strokeColor=inherit;top=0;left=0;bottom=0;right=0;collapsible=0;dropTarget=0;fillColor=none;points=[[0,0.5],[1,0.5]];portConstraint=eastwest;" vertex="1" parent="WQZCRRyg-xGZXXUz7URa-27">
          <mxGeometry width="120" height="40" as="geometry" />
        </mxCell>
        <mxCell id="WQZCRRyg-xGZXXUz7URa-29" value="&lt;b&gt;&lt;i&gt;&lt;font style=&quot;font-size: 10px;&quot;&gt;ID&lt;/font&gt;&lt;/i&gt;&lt;/b&gt;" style="shape=partialRectangle;html=1;whiteSpace=wrap;connectable=0;strokeColor=inherit;overflow=hidden;fillColor=none;top=0;left=0;bottom=0;right=0;pointerEvents=1;" vertex="1" parent="WQZCRRyg-xGZXXUz7URa-28">
          <mxGeometry width="60" height="40" as="geometry">
            <mxRectangle width="60" height="40" as="alternateBounds" />
          </mxGeometry>
        </mxCell>
        <mxCell id="WQZCRRyg-xGZXXUz7URa-30" value="&lt;b&gt;&lt;i&gt;&lt;font style=&quot;font-size: 10px;&quot;&gt;Name&lt;/font&gt;&lt;/i&gt;&lt;/b&gt;" style="shape=partialRectangle;html=1;whiteSpace=wrap;connectable=0;strokeColor=inherit;overflow=hidden;fillColor=none;top=0;left=0;bottom=0;right=0;pointerEvents=1;" vertex="1" parent="WQZCRRyg-xGZXXUz7URa-28">
          <mxGeometry x="60" width="60" height="40" as="geometry">
            <mxRectangle width="60" height="40" as="alternateBounds" />
          </mxGeometry>
        </mxCell>
        <mxCell id="WQZCRRyg-xGZXXUz7URa-31" value="" style="endArrow=none;html=1;rounded=0;" edge="1" parent="1">
          <mxGeometry width="50" height="50" relative="1" as="geometry">
            <mxPoint x="140" y="467" as="sourcePoint" />
            <mxPoint x="160" y="467" as="targetPoint" />
          </mxGeometry>
        </mxCell>
        <mxCell id="WQZCRRyg-xGZXXUz7URa-33" value="&lt;span style=&quot;font-size: 10px;&quot;&gt;&lt;b&gt;&lt;i&gt;Instructor&lt;/i&gt;&lt;/b&gt;&lt;/span&gt;" style="text;strokeColor=none;align=center;fillColor=none;html=1;verticalAlign=middle;whiteSpace=wrap;rounded=0;" vertex="1" parent="1">
          <mxGeometry x="113" y="493" width="60" height="30" as="geometry" />
        </mxCell>
        <mxCell id="WQZCRRyg-xGZXXUz7URa-34" value="" style="shape=table;startSize=0;container=1;collapsible=0;childLayout=tableLayout;" vertex="1" parent="1">
          <mxGeometry x="120" y="517" width="360" height="40" as="geometry" />
        </mxCell>
        <mxCell id="WQZCRRyg-xGZXXUz7URa-35" value="" style="shape=tableRow;horizontal=0;startSize=0;swimlaneHead=0;swimlaneBody=0;strokeColor=inherit;top=0;left=0;bottom=0;right=0;collapsible=0;dropTarget=0;fillColor=none;points=[[0,0.5],[1,0.5]];portConstraint=eastwest;" vertex="1" parent="WQZCRRyg-xGZXXUz7URa-34">
          <mxGeometry width="360" height="40" as="geometry" />
        </mxCell>
        <mxCell id="WQZCRRyg-xGZXXUz7URa-36" value="&lt;b&gt;&lt;i&gt;&lt;font style=&quot;font-size: 10px;&quot;&gt;ID&lt;/font&gt;&lt;/i&gt;&lt;/b&gt;" style="shape=partialRectangle;html=1;whiteSpace=wrap;connectable=0;strokeColor=inherit;overflow=hidden;fillColor=none;top=0;left=0;bottom=0;right=0;pointerEvents=1;" vertex="1" parent="WQZCRRyg-xGZXXUz7URa-35">
          <mxGeometry width="60" height="40" as="geometry">
            <mxRectangle width="60" height="40" as="alternateBounds" />
          </mxGeometry>
        </mxCell>
        <mxCell id="WQZCRRyg-xGZXXUz7URa-37" value="&lt;b&gt;&lt;i&gt;&lt;font style=&quot;font-size: 10px;&quot;&gt;Name&lt;/font&gt;&lt;/i&gt;&lt;/b&gt;" style="shape=partialRectangle;html=1;whiteSpace=wrap;connectable=0;strokeColor=inherit;overflow=hidden;fillColor=none;top=0;left=0;bottom=0;right=0;pointerEvents=1;" vertex="1" parent="WQZCRRyg-xGZXXUz7URa-35">
          <mxGeometry x="60" width="60" height="40" as="geometry">
            <mxRectangle width="60" height="40" as="alternateBounds" />
          </mxGeometry>
        </mxCell>
        <mxCell id="WQZCRRyg-xGZXXUz7URa-38" value="&lt;b&gt;&lt;i&gt;&lt;font style=&quot;font-size: 10px;&quot;&gt;Bouns&lt;/font&gt;&lt;/i&gt;&lt;/b&gt;" style="shape=partialRectangle;html=1;whiteSpace=wrap;connectable=0;strokeColor=inherit;overflow=hidden;fillColor=none;top=0;left=0;bottom=0;right=0;pointerEvents=1;" vertex="1" parent="WQZCRRyg-xGZXXUz7URa-35">
          <mxGeometry x="120" width="60" height="40" as="geometry">
            <mxRectangle width="60" height="40" as="alternateBounds" />
          </mxGeometry>
        </mxCell>
        <mxCell id="WQZCRRyg-xGZXXUz7URa-39" value="&lt;b&gt;&lt;i&gt;&lt;font style=&quot;font-size: 10px;&quot;&gt;Address&lt;/font&gt;&lt;/i&gt;&lt;/b&gt;" style="shape=partialRectangle;html=1;whiteSpace=wrap;connectable=0;strokeColor=inherit;overflow=hidden;fillColor=none;top=0;left=0;bottom=0;right=0;pointerEvents=1;" vertex="1" parent="WQZCRRyg-xGZXXUz7URa-35">
          <mxGeometry x="180" width="60" height="40" as="geometry">
            <mxRectangle width="60" height="40" as="alternateBounds" />
          </mxGeometry>
        </mxCell>
        <mxCell id="WQZCRRyg-xGZXXUz7URa-40" value="&lt;b&gt;&lt;i&gt;&lt;font style=&quot;font-size: 10px;&quot;&gt;Salary&lt;/font&gt;&lt;/i&gt;&lt;/b&gt;" style="shape=partialRectangle;html=1;whiteSpace=wrap;connectable=0;strokeColor=inherit;overflow=hidden;fillColor=none;top=0;left=0;bottom=0;right=0;pointerEvents=1;" vertex="1" parent="WQZCRRyg-xGZXXUz7URa-35">
          <mxGeometry x="240" width="60" height="40" as="geometry">
            <mxRectangle width="60" height="40" as="alternateBounds" />
          </mxGeometry>
        </mxCell>
        <mxCell id="WQZCRRyg-xGZXXUz7URa-41" value="&lt;b&gt;&lt;i&gt;&lt;font style=&quot;font-size: 10px;&quot;&gt;Hour Rate&lt;/font&gt;&lt;/i&gt;&lt;/b&gt;" style="shape=partialRectangle;html=1;whiteSpace=wrap;connectable=0;strokeColor=inherit;overflow=hidden;fillColor=none;top=0;left=0;bottom=0;right=0;pointerEvents=1;" vertex="1" parent="WQZCRRyg-xGZXXUz7URa-35">
          <mxGeometry x="300" width="60" height="40" as="geometry">
            <mxRectangle width="60" height="40" as="alternateBounds" />
          </mxGeometry>
        </mxCell>
        <mxCell id="WQZCRRyg-xGZXXUz7URa-42" value="" style="endArrow=none;html=1;rounded=0;" edge="1" parent="1">
          <mxGeometry width="50" height="50" relative="1" as="geometry">
            <mxPoint x="139" y="545" as="sourcePoint" />
            <mxPoint x="159" y="545" as="targetPoint" />
          </mxGeometry>
        </mxCell>
        <mxCell id="WQZCRRyg-xGZXXUz7URa-43" value="&lt;span style=&quot;font-size: 10px;&quot;&gt;&lt;b&gt;&lt;i&gt;Student Course&lt;/i&gt;&lt;/b&gt;&lt;/span&gt;" style="text;strokeColor=none;align=center;fillColor=none;html=1;verticalAlign=middle;whiteSpace=wrap;rounded=0;" vertex="1" parent="1">
          <mxGeometry x="117" y="180" width="77" height="30" as="geometry" />
        </mxCell>
        <mxCell id="WQZCRRyg-xGZXXUz7URa-44" value="" style="shape=table;startSize=0;container=1;collapsible=0;childLayout=tableLayout;" vertex="1" parent="1">
          <mxGeometry x="120" y="204" width="120" height="40" as="geometry" />
        </mxCell>
        <mxCell id="WQZCRRyg-xGZXXUz7URa-45" value="" style="shape=tableRow;horizontal=0;startSize=0;swimlaneHead=0;swimlaneBody=0;strokeColor=inherit;top=0;left=0;bottom=0;right=0;collapsible=0;dropTarget=0;fillColor=none;points=[[0,0.5],[1,0.5]];portConstraint=eastwest;" vertex="1" parent="WQZCRRyg-xGZXXUz7URa-44">
          <mxGeometry width="120" height="40" as="geometry" />
        </mxCell>
        <mxCell id="WQZCRRyg-xGZXXUz7URa-46" value="&lt;b&gt;&lt;i&gt;&lt;font style=&quot;font-size: 10px;&quot;&gt;Student ID&lt;/font&gt;&lt;/i&gt;&lt;/b&gt;" style="shape=partialRectangle;html=1;whiteSpace=wrap;connectable=0;strokeColor=inherit;overflow=hidden;fillColor=none;top=0;left=0;bottom=0;right=0;pointerEvents=1;" vertex="1" parent="WQZCRRyg-xGZXXUz7URa-45">
          <mxGeometry width="60" height="40" as="geometry">
            <mxRectangle width="60" height="40" as="alternateBounds" />
          </mxGeometry>
        </mxCell>
        <mxCell id="WQZCRRyg-xGZXXUz7URa-47" value="&lt;b&gt;&lt;i&gt;&lt;font style=&quot;font-size: 10px;&quot;&gt;Course ID&lt;/font&gt;&lt;/i&gt;&lt;/b&gt;" style="shape=partialRectangle;html=1;whiteSpace=wrap;connectable=0;strokeColor=inherit;overflow=hidden;fillColor=none;top=0;left=0;bottom=0;right=0;pointerEvents=1;" vertex="1" parent="WQZCRRyg-xGZXXUz7URa-45">
          <mxGeometry x="60" width="60" height="40" as="geometry">
            <mxRectangle width="60" height="40" as="alternateBounds" />
          </mxGeometry>
        </mxCell>
        <mxCell id="WQZCRRyg-xGZXXUz7URa-49" value="" style="endArrow=none;dashed=1;html=1;rounded=0;" edge="1" parent="1">
          <mxGeometry width="50" height="50" relative="1" as="geometry">
            <mxPoint x="130" y="232" as="sourcePoint" />
            <mxPoint x="170" y="232" as="targetPoint" />
          </mxGeometry>
        </mxCell>
        <mxCell id="WQZCRRyg-xGZXXUz7URa-50" value="" style="endArrow=none;dashed=1;html=1;rounded=0;" edge="1" parent="1">
          <mxGeometry width="50" height="50" relative="1" as="geometry">
            <mxPoint x="187" y="232" as="sourcePoint" />
            <mxPoint x="237" y="232" as="targetPoint" />
          </mxGeometry>
        </mxCell>
        <mxCell id="WQZCRRyg-xGZXXUz7URa-51" value="" style="endArrow=none;html=1;rounded=0;" edge="1" parent="1">
          <mxGeometry width="50" height="50" relative="1" as="geometry">
            <mxPoint x="133" y="238" as="sourcePoint" />
            <mxPoint x="223" y="238" as="targetPoint" />
          </mxGeometry>
        </mxCell>
        <mxCell id="WQZCRRyg-xGZXXUz7URa-52" style="edgeStyle=orthogonalEdgeStyle;rounded=0;orthogonalLoop=1;jettySize=auto;html=1;exitX=0;exitY=0.5;exitDx=0;exitDy=0;entryX=0;entryY=0.5;entryDx=0;entryDy=0;" edge="1" parent="1" source="WQZCRRyg-xGZXXUz7URa-45" target="WQZCRRyg-xGZXXUz7URa-3">
          <mxGeometry relative="1" as="geometry">
            <Array as="points">
              <mxPoint x="120" y="210" />
              <mxPoint x="50" y="210" />
              <mxPoint x="50" y="146" />
            </Array>
          </mxGeometry>
        </mxCell>
        <mxCell id="WQZCRRyg-xGZXXUz7URa-53" style="edgeStyle=orthogonalEdgeStyle;rounded=0;orthogonalLoop=1;jettySize=auto;html=1;exitX=0;exitY=0.5;exitDx=0;exitDy=0;entryX=0;entryY=0.5;entryDx=0;entryDy=0;" edge="1" parent="1" source="WQZCRRyg-xGZXXUz7URa-45" target="WQZCRRyg-xGZXXUz7URa-13">
          <mxGeometry relative="1" as="geometry">
            <Array as="points">
              <mxPoint x="120" y="230" />
              <mxPoint x="50" y="230" />
              <mxPoint x="50" y="305" />
            </Array>
          </mxGeometry>
        </mxCell>
        <mxCell id="WQZCRRyg-xGZXXUz7URa-54" value="" style="shape=table;startSize=0;container=1;collapsible=0;childLayout=tableLayout;" vertex="1" parent="1">
          <mxGeometry x="240" y="204" width="60" height="40" as="geometry" />
        </mxCell>
        <mxCell id="WQZCRRyg-xGZXXUz7URa-55" value="" style="shape=tableRow;horizontal=0;startSize=0;swimlaneHead=0;swimlaneBody=0;strokeColor=inherit;top=0;left=0;bottom=0;right=0;collapsible=0;dropTarget=0;fillColor=none;points=[[0,0.5],[1,0.5]];portConstraint=eastwest;" vertex="1" parent="WQZCRRyg-xGZXXUz7URa-54">
          <mxGeometry width="60" height="40" as="geometry" />
        </mxCell>
        <mxCell id="WQZCRRyg-xGZXXUz7URa-56" value="&lt;b&gt;&lt;i&gt;&lt;font style=&quot;font-size: 10px;&quot;&gt;Grades&lt;/font&gt;&lt;/i&gt;&lt;/b&gt;" style="shape=partialRectangle;html=1;whiteSpace=wrap;connectable=0;strokeColor=inherit;overflow=hidden;fillColor=none;top=0;left=0;bottom=0;right=0;pointerEvents=1;" vertex="1" parent="WQZCRRyg-xGZXXUz7URa-55">
          <mxGeometry width="60" height="40" as="geometry">
            <mxRectangle width="60" height="40" as="alternateBounds" />
          </mxGeometry>
        </mxCell>
        <mxCell id="WQZCRRyg-xGZXXUz7URa-59" value="" style="shape=table;startSize=0;container=1;collapsible=0;childLayout=tableLayout;" vertex="1" parent="1">
          <mxGeometry x="360" y="285" width="60" height="40" as="geometry" />
        </mxCell>
        <mxCell id="WQZCRRyg-xGZXXUz7URa-60" value="" style="shape=tableRow;horizontal=0;startSize=0;swimlaneHead=0;swimlaneBody=0;strokeColor=inherit;top=0;left=0;bottom=0;right=0;collapsible=0;dropTarget=0;fillColor=none;points=[[0,0.5],[1,0.5]];portConstraint=eastwest;" vertex="1" parent="WQZCRRyg-xGZXXUz7URa-59">
          <mxGeometry width="60" height="40" as="geometry" />
        </mxCell>
        <mxCell id="WQZCRRyg-xGZXXUz7URa-61" value="&lt;b&gt;&lt;i&gt;&lt;font style=&quot;font-size: 10px;&quot;&gt;Topic ID&lt;/font&gt;&lt;/i&gt;&lt;/b&gt;" style="shape=partialRectangle;html=1;whiteSpace=wrap;connectable=0;strokeColor=inherit;overflow=hidden;fillColor=none;top=0;left=0;bottom=0;right=0;pointerEvents=1;" vertex="1" parent="WQZCRRyg-xGZXXUz7URa-60">
          <mxGeometry width="60" height="40" as="geometry">
            <mxRectangle width="60" height="40" as="alternateBounds" />
          </mxGeometry>
        </mxCell>
        <mxCell id="WQZCRRyg-xGZXXUz7URa-62" value="" style="endArrow=none;dashed=1;html=1;rounded=0;" edge="1" parent="1">
          <mxGeometry width="50" height="50" relative="1" as="geometry">
            <mxPoint x="371" y="316" as="sourcePoint" />
            <mxPoint x="411" y="316" as="targetPoint" />
          </mxGeometry>
        </mxCell>
        <mxCell id="WQZCRRyg-xGZXXUz7URa-63" style="edgeStyle=orthogonalEdgeStyle;rounded=0;orthogonalLoop=1;jettySize=auto;html=1;exitX=0;exitY=0.5;exitDx=0;exitDy=0;entryX=0.008;entryY=0.7;entryDx=0;entryDy=0;entryPerimeter=0;" edge="1" parent="1" source="WQZCRRyg-xGZXXUz7URa-13" target="WQZCRRyg-xGZXXUz7URa-22">
          <mxGeometry relative="1" as="geometry">
            <Array as="points">
              <mxPoint x="120" y="310" />
              <mxPoint x="60" y="310" />
              <mxPoint x="60" y="387" />
            </Array>
          </mxGeometry>
        </mxCell>
        <mxCell id="WQZCRRyg-xGZXXUz7URa-64" value="" style="shape=table;startSize=0;container=1;collapsible=0;childLayout=tableLayout;" vertex="1" parent="1">
          <mxGeometry x="420" y="126" width="80" height="40" as="geometry" />
        </mxCell>
        <mxCell id="WQZCRRyg-xGZXXUz7URa-65" value="" style="shape=tableRow;horizontal=0;startSize=0;swimlaneHead=0;swimlaneBody=0;strokeColor=inherit;top=0;left=0;bottom=0;right=0;collapsible=0;dropTarget=0;fillColor=none;points=[[0,0.5],[1,0.5]];portConstraint=eastwest;" vertex="1" parent="WQZCRRyg-xGZXXUz7URa-64">
          <mxGeometry width="80" height="40" as="geometry" />
        </mxCell>
        <mxCell id="WQZCRRyg-xGZXXUz7URa-66" value="&lt;b&gt;&lt;i&gt;&lt;font style=&quot;font-size: 10px;&quot;&gt;Department ID&lt;/font&gt;&lt;/i&gt;&lt;/b&gt;" style="shape=partialRectangle;html=1;whiteSpace=wrap;connectable=0;strokeColor=inherit;overflow=hidden;fillColor=none;top=0;left=0;bottom=0;right=0;pointerEvents=1;" vertex="1" parent="WQZCRRyg-xGZXXUz7URa-65">
          <mxGeometry width="80" height="40" as="geometry">
            <mxRectangle width="80" height="40" as="alternateBounds" />
          </mxGeometry>
        </mxCell>
        <mxCell id="WQZCRRyg-xGZXXUz7URa-67" value="" style="endArrow=none;dashed=1;html=1;rounded=0;" edge="1" parent="1">
          <mxGeometry width="50" height="50" relative="1" as="geometry">
            <mxPoint x="432" y="156" as="sourcePoint" />
            <mxPoint x="492" y="156" as="targetPoint" />
          </mxGeometry>
        </mxCell>
        <mxCell id="WQZCRRyg-xGZXXUz7URa-68" style="edgeStyle=orthogonalEdgeStyle;rounded=0;orthogonalLoop=1;jettySize=auto;html=1;exitX=0;exitY=0.5;exitDx=0;exitDy=0;entryX=0;entryY=0.5;entryDx=0;entryDy=0;" edge="1" parent="1" source="WQZCRRyg-xGZXXUz7URa-3" target="WQZCRRyg-xGZXXUz7URa-28">
          <mxGeometry relative="1" as="geometry">
            <Array as="points">
              <mxPoint x="120" y="160" />
              <mxPoint y="160" />
              <mxPoint y="458" />
            </Array>
          </mxGeometry>
        </mxCell>
        <mxCell id="WQZCRRyg-xGZXXUz7URa-69" value="" style="shape=table;startSize=0;container=1;collapsible=0;childLayout=tableLayout;" vertex="1" parent="1">
          <mxGeometry x="240" y="438" width="80" height="40" as="geometry" />
        </mxCell>
        <mxCell id="WQZCRRyg-xGZXXUz7URa-70" value="" style="shape=tableRow;horizontal=0;startSize=0;swimlaneHead=0;swimlaneBody=0;strokeColor=inherit;top=0;left=0;bottom=0;right=0;collapsible=0;dropTarget=0;fillColor=none;points=[[0,0.5],[1,0.5]];portConstraint=eastwest;" vertex="1" parent="WQZCRRyg-xGZXXUz7URa-69">
          <mxGeometry width="80" height="40" as="geometry" />
        </mxCell>
        <mxCell id="WQZCRRyg-xGZXXUz7URa-71" value="&lt;b&gt;&lt;i&gt;&lt;font style=&quot;font-size: 10px;&quot;&gt;Instructor ID&lt;/font&gt;&lt;/i&gt;&lt;/b&gt;" style="shape=partialRectangle;html=1;whiteSpace=wrap;connectable=0;strokeColor=inherit;overflow=hidden;fillColor=none;top=0;left=0;bottom=0;right=0;pointerEvents=1;" vertex="1" parent="WQZCRRyg-xGZXXUz7URa-70">
          <mxGeometry width="80" height="40" as="geometry">
            <mxRectangle width="80" height="40" as="alternateBounds" />
          </mxGeometry>
        </mxCell>
        <mxCell id="WQZCRRyg-xGZXXUz7URa-72" value="" style="endArrow=none;dashed=1;html=1;rounded=0;" edge="1" parent="1">
          <mxGeometry width="50" height="50" relative="1" as="geometry">
            <mxPoint x="259" y="468" as="sourcePoint" />
            <mxPoint x="299" y="468" as="targetPoint" />
          </mxGeometry>
        </mxCell>
        <mxCell id="WQZCRRyg-xGZXXUz7URa-73" style="edgeStyle=orthogonalEdgeStyle;rounded=0;orthogonalLoop=1;jettySize=auto;html=1;exitX=0;exitY=0.5;exitDx=0;exitDy=0;entryX=0;entryY=0.5;entryDx=0;entryDy=0;" edge="1" parent="1" source="WQZCRRyg-xGZXXUz7URa-28" target="WQZCRRyg-xGZXXUz7URa-35">
          <mxGeometry relative="1" as="geometry">
            <Array as="points">
              <mxPoint x="120" y="470" />
              <mxPoint x="40" y="470" />
              <mxPoint x="40" y="537" />
            </Array>
          </mxGeometry>
        </mxCell>
        <mxCell id="WQZCRRyg-xGZXXUz7URa-74" value="" style="shape=table;startSize=0;container=1;collapsible=0;childLayout=tableLayout;" vertex="1" parent="1">
          <mxGeometry x="320" y="438" width="80" height="40" as="geometry" />
        </mxCell>
        <mxCell id="WQZCRRyg-xGZXXUz7URa-75" value="" style="shape=tableRow;horizontal=0;startSize=0;swimlaneHead=0;swimlaneBody=0;strokeColor=inherit;top=0;left=0;bottom=0;right=0;collapsible=0;dropTarget=0;fillColor=none;points=[[0,0.5],[1,0.5]];portConstraint=eastwest;" vertex="1" parent="WQZCRRyg-xGZXXUz7URa-74">
          <mxGeometry width="80" height="40" as="geometry" />
        </mxCell>
        <mxCell id="WQZCRRyg-xGZXXUz7URa-76" value="&lt;b&gt;&lt;i&gt;&lt;font style=&quot;font-size: 10px;&quot;&gt;Hire Date&lt;/font&gt;&lt;/i&gt;&lt;/b&gt;" style="shape=partialRectangle;html=1;whiteSpace=wrap;connectable=0;strokeColor=inherit;overflow=hidden;fillColor=none;top=0;left=0;bottom=0;right=0;pointerEvents=1;" vertex="1" parent="WQZCRRyg-xGZXXUz7URa-75">
          <mxGeometry width="80" height="40" as="geometry">
            <mxRectangle width="80" height="40" as="alternateBounds" />
          </mxGeometry>
        </mxCell>
        <mxCell id="WQZCRRyg-xGZXXUz7URa-79" value="" style="shape=table;startSize=0;container=1;collapsible=0;childLayout=tableLayout;" vertex="1" parent="1">
          <mxGeometry x="480" y="517" width="80" height="40" as="geometry" />
        </mxCell>
        <mxCell id="WQZCRRyg-xGZXXUz7URa-80" value="" style="shape=tableRow;horizontal=0;startSize=0;swimlaneHead=0;swimlaneBody=0;strokeColor=inherit;top=0;left=0;bottom=0;right=0;collapsible=0;dropTarget=0;fillColor=none;points=[[0,0.5],[1,0.5]];portConstraint=eastwest;" vertex="1" parent="WQZCRRyg-xGZXXUz7URa-79">
          <mxGeometry width="80" height="40" as="geometry" />
        </mxCell>
        <mxCell id="WQZCRRyg-xGZXXUz7URa-81" value="&lt;b&gt;&lt;i&gt;&lt;font style=&quot;font-size: 10px;&quot;&gt;Department ID&lt;/font&gt;&lt;/i&gt;&lt;/b&gt;" style="shape=partialRectangle;html=1;whiteSpace=wrap;connectable=0;strokeColor=inherit;overflow=hidden;fillColor=none;top=0;left=0;bottom=0;right=0;pointerEvents=1;" vertex="1" parent="WQZCRRyg-xGZXXUz7URa-80">
          <mxGeometry width="80" height="40" as="geometry">
            <mxRectangle width="80" height="40" as="alternateBounds" />
          </mxGeometry>
        </mxCell>
        <mxCell id="WQZCRRyg-xGZXXUz7URa-82" value="" style="endArrow=none;dashed=1;html=1;rounded=0;" edge="1" parent="1">
          <mxGeometry width="50" height="50" relative="1" as="geometry">
            <mxPoint x="490" y="547" as="sourcePoint" />
            <mxPoint x="550" y="547" as="targetPoint" />
          </mxGeometry>
        </mxCell>
        <mxCell id="WQZCRRyg-xGZXXUz7URa-83" style="edgeStyle=orthogonalEdgeStyle;rounded=0;orthogonalLoop=1;jettySize=auto;html=1;exitX=1;exitY=0.5;exitDx=0;exitDy=0;entryX=1;entryY=0.5;entryDx=0;entryDy=0;" edge="1" parent="1" source="WQZCRRyg-xGZXXUz7URa-80" target="WQZCRRyg-xGZXXUz7URa-75">
          <mxGeometry relative="1" as="geometry" />
        </mxCell>
        <mxCell id="WQZCRRyg-xGZXXUz7URa-84" value="&lt;span style=&quot;font-size: 10px;&quot;&gt;&lt;b&gt;&lt;i&gt;Instructor Course&lt;/i&gt;&lt;/b&gt;&lt;/span&gt;" style="text;strokeColor=none;align=center;fillColor=none;html=1;verticalAlign=middle;whiteSpace=wrap;rounded=0;" vertex="1" parent="1">
          <mxGeometry x="119" y="580" width="87" height="30" as="geometry" />
        </mxCell>
        <mxCell id="WQZCRRyg-xGZXXUz7URa-85" value="" style="shape=table;startSize=0;container=1;collapsible=0;childLayout=tableLayout;" vertex="1" parent="1">
          <mxGeometry x="120" y="605" width="140" height="40" as="geometry" />
        </mxCell>
        <mxCell id="WQZCRRyg-xGZXXUz7URa-86" value="" style="shape=tableRow;horizontal=0;startSize=0;swimlaneHead=0;swimlaneBody=0;strokeColor=inherit;top=0;left=0;bottom=0;right=0;collapsible=0;dropTarget=0;fillColor=none;points=[[0,0.5],[1,0.5]];portConstraint=eastwest;" vertex="1" parent="WQZCRRyg-xGZXXUz7URa-85">
          <mxGeometry width="140" height="40" as="geometry" />
        </mxCell>
        <mxCell id="WQZCRRyg-xGZXXUz7URa-87" value="&lt;b&gt;&lt;i&gt;&lt;font style=&quot;font-size: 10px;&quot;&gt;Instructor ID&lt;/font&gt;&lt;/i&gt;&lt;/b&gt;" style="shape=partialRectangle;html=1;whiteSpace=wrap;connectable=0;strokeColor=inherit;overflow=hidden;fillColor=none;top=0;left=0;bottom=0;right=0;pointerEvents=1;" vertex="1" parent="WQZCRRyg-xGZXXUz7URa-86">
          <mxGeometry width="70" height="40" as="geometry">
            <mxRectangle width="70" height="40" as="alternateBounds" />
          </mxGeometry>
        </mxCell>
        <mxCell id="WQZCRRyg-xGZXXUz7URa-88" value="&lt;b&gt;&lt;i&gt;&lt;font style=&quot;font-size: 10px;&quot;&gt;Course ID&lt;/font&gt;&lt;/i&gt;&lt;/b&gt;" style="shape=partialRectangle;html=1;whiteSpace=wrap;connectable=0;strokeColor=inherit;overflow=hidden;fillColor=none;top=0;left=0;bottom=0;right=0;pointerEvents=1;" vertex="1" parent="WQZCRRyg-xGZXXUz7URa-86">
          <mxGeometry x="70" width="70" height="40" as="geometry">
            <mxRectangle width="70" height="40" as="alternateBounds" />
          </mxGeometry>
        </mxCell>
        <mxCell id="WQZCRRyg-xGZXXUz7URa-89" value="" style="endArrow=none;dashed=1;html=1;rounded=0;" edge="1" parent="1">
          <mxGeometry width="50" height="50" relative="1" as="geometry">
            <mxPoint x="132" y="634" as="sourcePoint" />
            <mxPoint x="167" y="634" as="targetPoint" />
          </mxGeometry>
        </mxCell>
        <mxCell id="WQZCRRyg-xGZXXUz7URa-90" value="" style="endArrow=none;dashed=1;html=1;rounded=0;" edge="1" parent="1">
          <mxGeometry width="50" height="50" relative="1" as="geometry">
            <mxPoint x="204" y="634" as="sourcePoint" />
            <mxPoint x="244" y="634" as="targetPoint" />
          </mxGeometry>
        </mxCell>
        <mxCell id="WQZCRRyg-xGZXXUz7URa-91" value="" style="endArrow=none;html=1;rounded=0;" edge="1" parent="1">
          <mxGeometry width="50" height="50" relative="1" as="geometry">
            <mxPoint x="135" y="640" as="sourcePoint" />
            <mxPoint x="225" y="640" as="targetPoint" />
          </mxGeometry>
        </mxCell>
        <mxCell id="WQZCRRyg-xGZXXUz7URa-92" style="edgeStyle=orthogonalEdgeStyle;rounded=0;orthogonalLoop=1;jettySize=auto;html=1;exitX=1;exitY=0.5;exitDx=0;exitDy=0;entryX=1.025;entryY=0.7;entryDx=0;entryDy=0;entryPerimeter=0;" edge="1" parent="1" source="WQZCRRyg-xGZXXUz7URa-86" target="WQZCRRyg-xGZXXUz7URa-80">
          <mxGeometry relative="1" as="geometry">
            <Array as="points">
              <mxPoint x="650" y="625" />
              <mxPoint x="650" y="545" />
            </Array>
          </mxGeometry>
        </mxCell>
        <mxCell id="WQZCRRyg-xGZXXUz7URa-94" style="edgeStyle=orthogonalEdgeStyle;rounded=0;orthogonalLoop=1;jettySize=auto;html=1;exitX=0;exitY=0.5;exitDx=0;exitDy=0;entryX=-0.004;entryY=0.25;entryDx=0;entryDy=0;entryPerimeter=0;" edge="1" parent="1" source="WQZCRRyg-xGZXXUz7URa-86" target="WQZCRRyg-xGZXXUz7URa-13">
          <mxGeometry relative="1" as="geometry">
            <Array as="points">
              <mxPoint x="-10" y="625" />
              <mxPoint x="-10" y="295" />
            </Array>
          </mxGeometry>
        </mxCell>
      </root>
    </mxGraphModel>
  </diagram>
</mxfile>
